<?xml version="1.0" encoding="utf-8"?>
<svg version="1.1" xmlns="http://www.w3.org/2000/svg" width="80" height="80" viewBox="0 0 80 80">
<path sketchjsTool="circle" style="fill: #1890ff; stroke: #000000; mix-blend-mode: source-over; paint-order: stroke fill markers; fill-opacity: 0.2; stroke-dasharray: none; stroke-dashoffset: 0; stroke-linecap: round; stroke-linejoin: miter; stroke-miterlimit: 4; stroke-opacity: 0.02; stroke-width: 2; vector-effect: non-scaling-stroke;" d="M50 0 C77.61 0 100 22.39 100 50 100 77.61 77.61 100 50 100 22.39 100 0 77.61 0 50 0 22.39 22.39 0 50 0 z" transform="matrix(0.49082616698660464,0,0,0.4908261669866047,-0.8256613513695439,16.7666626119515)"/>
<path sketchjsTool="circle" style="fill: #1890ff; mix-blend-mode: source-over; fill-opacity: 0.4; vector-effect: non-scaling-stroke;" d="M50 0 C77.61 0 100 22.39 100 50 100 77.61 77.61 100 50 100 22.39 100 0 77.61 0 50 0 22.39 22.39 0 50 0 z" transform="matrix(0.49082616698660464,0,0,0.4908261669866047,10.84218400112829,16.77946797022479)"/>
<path sketchjsTool="circle" style="fill: none; stroke: #1890ff; mix-blend-mode: source-over; stroke-dasharray: none; stroke-dashoffset: 0; stroke-linecap: round; stroke-linejoin: miter; stroke-miterlimit: 4; stroke-opacity: 1; stroke-width: 4; vector-effect: non-scaling-stroke;" d="M50 0 C77.61 0 100 22.39 100 50 100 77.61 77.61 100 50 100 22.39 100 0 77.61 0 50 0 22.39 22.39 0 50 0 z" transform="matrix(0.49082616698660464,-1.863982576234111e-15,1.8639825762341113e-15,0.4908261669866047,28.422466792252376,16.079418173789538)"/>
<g sketchjsTool="arrow" style="mix-blend-mode: source-over;" transform="matrix(0.9634212810132565,-0.0130304976382955,0.0130304976382955,0.9634212810132565,34.03192870393242,22.58707110912941)">
	<g sketchjs:uid="1">
		<g sketchjs:uid="2">
			<g sketchjs:uid="3" style="paint-order: stroke fill markers;">
				<path d="M 1.4999999898076553 20.5L 1.5000000101923447 17.5L 13.619638147030622 13.959276310218353L 7.390000118910692 1.5L 42.39 19L 7.389999881089306 36.5L 13.619638152397378 24.040723711362343L 1.4999999898076553 20.5ZZ" sketchjs:uid="4" style="fill: #1890ff;"/>
			</g>
		</g>
	</g>
</g>
</svg>
