<?xml version="1.0" encoding="utf-8"?>
<svg version="1.1" xmlns="http://www.w3.org/2000/svg"  width="300" height="300" viewBox="0 0 300 300">
<path sketchjsTool="circle" style="fill: #7f7f7f; mix-blend-mode: source-over; fill-opacity: 0.28; vector-effect: non-scaling-stroke;" d="M37.52 0 C58.24 0 75.04 16.8 75.04 37.52 75.04 58.24 58.24 75.04 37.52 75.04 16.8 75.04 0 58.24 0 37.52 0 16.8 16.8 0 37.52 0 z" transform="matrix(0.9941536995643598,-0.10797417118226275,0.10797417118226275,0.9941536995643598,3.3372884190911023,229.32292948605672)"/>
<path sketchjsTool="circle" style="fill: #7f7f7f; mix-blend-mode: source-over; fill-opacity: 0.44; vector-effect: non-scaling-stroke;" d="M37.52 0 C58.24 0 75.04 16.8 75.04 37.52 75.04 58.24 58.24 75.04 37.52 75.04 16.8 75.04 0 58.24 0 37.52 0 16.8 16.8 0 37.52 0 z" transform="matrix(0.9941536995643598,-0.10797417118226275,0.10797417118226275,0.9941536995643598,32.938850919091095,61.03386698605672)"/>
<path sketchjsTool="circle" style="fill: #7f7f7f; stroke: #000000; mix-blend-mode: source-over; paint-order: stroke fill markers; fill-opacity: 0.52; stroke-dasharray: none; stroke-dashoffset: 0; stroke-linecap: round; stroke-linejoin: miter; stroke-miterlimit: 4; stroke-opacity: 0.05; stroke-width: 1; vector-effect: non-scaling-stroke;" d="M37.52 0 C58.24 0 75.04 16.8 75.04 37.52 75.04 58.24 58.24 75.04 37.52 75.04 16.8 75.04 0 58.24 0 37.52 0 16.8 16.8 0 37.52 0 z" transform="matrix(0.9939296170341334,-0.11001780029786469,0.11001780029786469,0.9939296170341334,69.87448401686646,17.509581218528993)"/>
<path sketchjsTool="circle" style="fill: #7f7f7f; mix-blend-mode: source-over; fill-opacity: 0.6; vector-effect: non-scaling-stroke;" d="M37.52 0 C58.24 0 75.04 16.8 75.04 37.52 75.04 58.24 58.24 75.04 37.52 75.04 16.8 75.04 0 58.24 0 37.52 0 16.8 16.8 0 37.52 0 z" transform="matrix(0.9941536995643598,-0.10797417118226275,0.10797417118226275,0.9941536995643598,100.5052571690911,8.041679486056722)"/>
<path sketchjsTool="circle" style="fill: #7f7f7f; mix-blend-mode: source-over; fill-opacity: 0.68; vector-effect: non-scaling-stroke;" d="M37.52 0 C58.24 0 75.04 16.8 75.04 37.52 75.04 58.24 58.24 75.04 37.52 75.04 16.8 75.04 0 58.24 0 37.52 0 16.8 16.8 0 37.52 0 z" transform="matrix(0.9941536995643598,-0.10797417118226275,0.10797417118226275,0.9941536995643598,131.4544759190911,15.783866986056722)"/>
<path sketchjsTool="circle" style="fill: #7f7f7f; mix-blend-mode: source-over; fill-opacity: 0.76; vector-effect: non-scaling-stroke;" d="M37.52 0 C58.24 0 75.04 16.8 75.04 37.52 75.04 58.24 58.24 75.04 37.52 75.04 16.8 75.04 0 58.24 0 37.52 0 16.8 16.8 0 37.52 0 z" transform="matrix(0.994681117974643,-0.10300229873509785,0.10300229873509785,0.994681117974643,174.4532722793961,56.718147215960954)"/>
<path sketchjsTool="circle" style="fill: #7f7f7f; mix-blend-mode: source-over; fill-opacity: 0.86; vector-effect: non-scaling-stroke;" d="M37.52 0 C58.24 0 75.04 16.8 75.04 37.52 75.04 58.24 58.24 75.04 37.52 75.04 16.8 75.04 0 58.24 0 37.52 0 16.8 16.8 0 37.52 0 z" transform="matrix(0.9941536995643598,-0.10797417118226275,0.10797417118226275,0.9941536995643598,211.0482259190911,229.30730448605675)"/>
<path sketchjsTool="circle" style="fill: #7f7f7f; mix-blend-mode: source-over; fill-opacity: 0.36; vector-effect: non-scaling-stroke;" d="M37.52 0 C58.24 0 75.04 16.8 75.04 37.52 75.04 58.24 58.24 75.04 37.52 75.04 16.8 75.04 0 58.24 0 37.52 0 16.8 16.8 0 37.52 0 z" transform="matrix(0.9941536995643598,-0.10797417118226275,0.10797417118226275,0.9941536995643598,20.181038419091095,117.12761698605672)"/>
<path sketchjsTool="circle" style="fill: #7f7f7f; mix-blend-mode: source-over; fill-opacity: 0.78; vector-effect: non-scaling-stroke;" d="M37.52 0 C58.24 0 75.04 16.8 75.04 37.52 75.04 58.24 58.24 75.04 37.52 75.04 16.8 75.04 0 58.24 0 37.52 0 16.8 16.8 0 37.52 0 z" transform="matrix(0.9941536995643598,-0.10797417118226275,0.10797417118226275,0.9941536995643598,192.6146321690911,112.72136698605672)"/>
</svg>
